<?xml version="1.0" encoding="utf-8"?>
<!-- Generator: Adobe Illustrator 16.0.0, SVG Export Plug-In . SVG Version: 6.00 Build 0)  -->
<!DOCTYPE svg PUBLIC "-//W3C//DTD SVG 1.1//EN" "http://www.w3.org/Graphics/SVG/1.1/DTD/svg11.dtd">
<svg version="1.1" id="Layer_1" xmlns="http://www.w3.org/2000/svg" xmlns:xlink="http://www.w3.org/1999/xlink" x="0px" y="0px"
	 width="201px" height="16px" viewBox="0 0 201 16" enable-background="new 0 0 201 16" xml:space="preserve">
<g>
	<g>
		<path fill="#0069AA" d="M60.49,3.521c0.608-0.359,1.065-0.798,1.174-1.511c-0.68,0.31-1.174-0.387-1.174-0.891
			c0-0.629,0.234-1.118,0.942-1.118c0.724,0,0.995,0.68,0.995,1.299c0,1.152-0.646,2.103-1.665,2.619L60.49,3.521z"/>
		<path fill="#0069AA" d="M8.625,11.483c-0.482,0.256-1.547,0.523-2.896,0.523C2.161,12.006,0,9.758,0,6.346
			c0-3.705,2.565-5.935,5.993-5.935c1.351,0,2.316,0.279,2.731,0.496L8.278,2.541c-0.537-0.232-1.269-0.43-2.2-0.43
			c-2.281,0-3.936,1.433-3.936,4.131c0,2.466,1.454,4.046,3.918,4.046c0.831,0,1.698-0.167,2.234-0.416L8.625,11.483z"/>
		<path fill="#0069AA" d="M10.242,0h2.066v4.821h0.034c0.25-0.379,0.596-0.717,1.013-0.931c0.403-0.229,0.883-0.36,1.404-0.36
			c1.38,0,2.832,0.912,2.832,3.513v4.778h-2.052V7.273c0-1.182-0.432-2.066-1.566-2.066c-0.803,0-1.366,0.529-1.579,1.152
			c-0.07,0.162-0.085,0.381-0.085,0.614v4.849h-2.066V0z"/>
		<path fill="#0069AA" d="M21.956,1.441c0,0.617-0.457,1.1-1.171,1.1c-0.683,0-1.135-0.483-1.135-1.1
			c0-0.627,0.47-1.111,1.153-1.111C21.5,0.33,21.929,0.814,21.956,1.441 M19.767,3.71h2.069v8.113h-2.069V3.71z"/>
		<rect x="24.037" fill="#0069AA" width="2.066" height="11.822"/>
		<path fill="#0069AA" d="M35.791,0v9.542c0,0.831,0.035,1.728,0.067,2.281H34.03l-0.087-1.284H33.91
			c-0.482,0.9-1.463,1.468-2.647,1.468c-1.933,0-3.46-1.653-3.46-4.15c-0.026-2.716,1.678-4.327,3.624-4.327
			c1.119,0,1.922,0.459,2.284,1.059h0.039V0H35.791z M33.748,7.09c0-0.167-0.021-0.368-0.055-0.534
			c-0.18-0.798-0.832-1.451-1.768-1.451c-1.312,0-2.046,1.167-2.046,2.687c0,1.479,0.734,2.561,2.034,2.561
			c0.83,0,1.563-0.563,1.76-1.448c0.053-0.184,0.074-0.383,0.074-0.599V7.09z"/>
		<path fill="#0069AA" d="M37.995,6.322c0-1.097-0.021-1.881-0.071-2.612h1.781l0.07,1.549h0.065c0.4-1.153,1.354-1.729,2.217-1.729
			c0.197,0,0.313,0.013,0.482,0.041v1.935c-0.169-0.03-0.352-0.063-0.598-0.063c-0.986,0-1.652,0.63-1.832,1.547
			c-0.034,0.181-0.069,0.401-0.069,0.633v4.2h-2.046V6.322z"/>
		<path fill="#0069AA" d="M45.223,8.337c0.045,1.468,1.197,2.101,2.496,2.101c0.951,0,1.632-0.137,2.25-0.371l0.294,1.415
			c-0.696,0.289-1.662,0.524-2.829,0.524c-2.631,0-4.18-1.635-4.18-4.12c0-2.246,1.363-4.357,3.962-4.357
			c2.651,0,3.503,2.16,3.503,3.942c0,0.383-0.037,0.685-0.068,0.865H45.223z M48.78,6.905c0.023-0.75-0.312-1.983-1.675-1.983
			c-1.27,0-1.801,1.15-1.882,1.983H48.78z"/>
		<path fill="#0069AA" d="M52.363,6.127c0-0.932-0.017-1.717-0.062-2.417h1.797l0.102,1.213h0.047
			c0.352-0.628,1.232-1.394,2.584-1.394c1.414,0,2.875,0.912,2.875,3.478v4.814h-2.045v-4.58c0-1.169-0.433-2.047-1.55-2.047
			c-0.811,0-1.379,0.579-1.6,1.195c-0.064,0.187-0.083,0.431-0.083,0.666v4.765h-2.065V6.127z"/>
		<path fill="#0069AA" d="M63.423,9.94c0.464,0.282,1.35,0.578,2.081,0.578c0.9,0,1.301-0.364,1.301-0.897
			c0-0.551-0.337-0.833-1.338-1.18c-1.581-0.555-2.245-1.414-2.23-2.37c0-1.427,1.181-2.542,3.068-2.542
			c0.899,0,1.679,0.231,2.147,0.479L68.053,5.46c-0.349-0.204-1.001-0.469-1.714-0.469c-0.735,0-1.131,0.348-1.131,0.849
			c0,0.52,0.377,0.766,1.412,1.133c1.467,0.532,2.146,1.28,2.167,2.482c0,1.464-1.152,2.551-3.303,2.551
			c-0.98,0-1.868-0.252-2.466-0.588L63.423,9.94z"/>
		<polygon fill="#0069AA" points="76.482,0.594 76.482,5.089 81.233,5.089 81.233,0.594 83.283,0.594 83.283,11.823 81.233,11.823 
			81.233,6.873 76.482,6.873 76.482,11.823 74.436,11.823 74.436,0.594 		"/>
		<path fill="#0069AA" d="M93.257,7.686c0,2.984-2.096,4.32-4.162,4.32c-2.294,0-4.067-1.583-4.067-4.182
			c0-2.667,1.752-4.295,4.196-4.295C91.64,3.529,93.257,5.225,93.257,7.686 M87.146,7.774c0,1.561,0.764,2.744,2.013,2.744
			c1.169,0,1.981-1.149,1.981-2.779c0-1.262-0.562-2.718-1.962-2.718C87.728,5.021,87.146,6.425,87.146,7.774"/>
		<path fill="#0069AA" d="M94.723,9.94c0.465,0.282,1.348,0.578,2.085,0.578c0.9,0,1.297-0.364,1.297-0.897
			c0-0.551-0.336-0.833-1.333-1.18c-1.583-0.555-2.252-1.414-2.227-2.37c0-1.427,1.181-2.542,3.061-2.542
			c0.903,0,1.684,0.231,2.146,0.479L99.356,5.46c-0.35-0.204-1.004-0.469-1.716-0.469c-0.733,0-1.135,0.348-1.135,0.849
			c0,0.52,0.387,0.766,1.415,1.133c1.468,0.532,2.152,1.28,2.167,2.482c0,1.464-1.146,2.551-3.297,2.551
			c-0.984,0-1.871-0.252-2.467-0.588L94.723,9.94z"/>
		<path fill="#0069AA" d="M101.767,6.404c0-1.064-0.032-1.926-0.062-2.695h1.799l0.097,1.251h0.035
			c0.598-0.92,1.548-1.432,2.779-1.432c1.866,0,3.415,1.599,3.415,4.126c0,2.936-1.847,4.351-3.694,4.351
			c-1.017,0-1.869-0.437-2.283-1.087h-0.037v4.201h-2.049V6.404z M103.816,8.425c0,0.197,0.018,0.378,0.071,0.565
			c0.194,0.828,0.93,1.433,1.795,1.433c1.304,0,2.069-1.088,2.069-2.685c0-1.431-0.702-2.6-2.021-2.6
			c-0.846,0-1.632,0.619-1.826,1.519c-0.052,0.164-0.088,0.351-0.088,0.514V8.425z"/>
		<path fill="#0069AA" d="M113.815,1.441c0,0.617-0.451,1.1-1.167,1.1c-0.684,0-1.132-0.483-1.132-1.1
			c0-0.627,0.468-1.111,1.148-1.111C113.365,0.33,113.801,0.814,113.815,1.441 M111.632,3.71h2.061v8.113h-2.061V3.71z"/>
		<path fill="#0069AA" d="M118.61,1.624V3.71h1.953v1.533h-1.953V8.82c0,0.986,0.268,1.501,1.054,1.501
			c0.379,0,0.565-0.033,0.797-0.098l0.033,1.565c-0.299,0.115-0.83,0.22-1.482,0.22c-0.747,0-1.38-0.267-1.766-0.683
			c-0.429-0.471-0.632-1.202-0.632-2.269V5.243h-1.168V3.71h1.168V2.213L118.61,1.624z"/>
		<path fill="#0069AA" d="M128.658,9.873c0,0.732,0.028,1.451,0.116,1.95h-1.852l-0.131-0.904h-0.052
			c-0.5,0.636-1.345,1.088-2.4,1.088c-1.631,0-2.545-1.189-2.545-2.421c0-2.045,1.813-3.079,4.81-3.063V6.39
			c0-0.529-0.216-1.414-1.646-1.414c-0.801,0-1.63,0.249-2.186,0.597l-0.4-1.329c0.602-0.368,1.651-0.714,2.927-0.714
			c2.608,0,3.357,1.647,3.357,3.409V9.873z M126.655,7.856c-1.45-0.03-2.828,0.282-2.828,1.513c0,0.803,0.512,1.169,1.165,1.169
			c0.812,0,1.414-0.532,1.6-1.115c0.05-0.153,0.063-0.321,0.063-0.454V7.856z"/>
		<rect x="130.64" fill="#0069AA" width="2.069" height="11.822"/>
		<path fill="#0069AA" d="M146.854,11.48c-0.486,0.231-1.548,0.496-2.908,0.496c-3.553,0-5.712-2.222-5.712-5.641
			c0-3.685,2.575-5.905,5.992-5.905c1.347,0,2.291,0.283,2.706,0.497l-0.433,1.627c-0.532-0.232-1.277-0.433-2.19-0.433
			c-2.27,0-3.915,1.428-3.915,4.117c0,2.473,1.426,4.03,3.9,4.03c0.812,0,1.673-0.166,2.223-0.397L146.854,11.48z"/>
		<path fill="#0069AA" d="M155.675,7.683c0,2.965-2.09,4.293-4.146,4.293c-2.271,0-4.049-1.556-4.049-4.165
			c0-2.653,1.739-4.279,4.181-4.279C154.065,3.532,155.675,5.226,155.675,7.683 M149.588,7.765c0,1.554,0.78,2.734,2.008,2.734
			c1.159,0,1.972-1.126,1.972-2.771c0-1.258-0.562-2.721-1.956-2.721C150.169,5.007,149.588,6.419,149.588,7.765"/>
		<rect x="157.104" y="0.013" fill="#0069AA" width="2.038" height="11.78"/>
		<path fill="#0069AA" d="M168.802,7.683c0,2.965-2.09,4.293-4.149,4.293c-2.274,0-4.048-1.556-4.048-4.165
			c0-2.653,1.746-4.279,4.183-4.279C167.193,3.532,168.802,5.226,168.802,7.683 M162.715,7.765c0,1.554,0.779,2.734,2.006,2.734
			c1.163,0,1.975-1.126,1.975-2.771c0-1.258-0.562-2.721-1.957-2.721C163.293,5.007,162.715,6.419,162.715,7.765"/>
		<path fill="#0069AA" d="M170.234,6.32c0-1.093-0.018-1.894-0.069-2.607h1.759l0.083,1.527h0.05c0.4-1.126,1.342-1.707,2.226-1.707
			c0.199,0,0.314,0.016,0.479,0.049V5.49c-0.183-0.03-0.365-0.051-0.615-0.051c-0.962,0-1.639,0.614-1.822,1.543
			c-0.034,0.184-0.052,0.399-0.052,0.615v4.198h-2.038V6.32z"/>
		<path fill="#0069AA" d="M182.014,9.855c0,0.729,0.032,1.445,0.132,1.94h-1.843l-0.15-0.896h-0.047
			c-0.484,0.633-1.33,1.077-2.39,1.077c-1.625,0-2.541-1.174-2.541-2.405c0-2.02,1.809-3.068,4.795-3.052V6.389
			c0-0.535-0.215-1.414-1.643-1.414c-0.797,0-1.628,0.251-2.172,0.595l-0.4-1.328c0.598-0.362,1.643-0.711,2.923-0.711
			c2.587,0,3.335,1.644,3.335,3.421V9.855z M180.021,7.845c-1.442-0.012-2.817,0.283-2.817,1.511c0,0.797,0.512,1.163,1.155,1.163
			c0.833,0,1.415-0.532,1.612-1.112c0.05-0.148,0.05-0.3,0.05-0.449V7.845z"/>
		<path fill="#0069AA" d="M191.372,0.014v9.507c0,0.834,0.031,1.727,0.068,2.272h-1.808l-0.103-1.275h-0.032
			c-0.479,0.894-1.463,1.457-2.621,1.457c-1.941,0-3.466-1.637-3.466-4.13c-0.018-2.702,1.672-4.313,3.618-4.313
			c1.106,0,1.907,0.448,2.269,1.046h0.032V0.014H191.372z M189.329,7.081c0-0.164-0.013-0.378-0.048-0.542
			c-0.178-0.784-0.827-1.43-1.759-1.43c-1.31,0-2.04,1.159-2.04,2.657c0,1.494,0.73,2.574,2.025,2.574
			c0.829,0,1.559-0.566,1.755-1.448c0.053-0.18,0.066-0.381,0.066-0.595V7.081z"/>
		<path fill="#0069AA" d="M201,7.683c0,2.965-2.096,4.293-4.149,4.293c-2.271,0-4.049-1.556-4.049-4.165
			c0-2.653,1.743-4.279,4.18-4.279C199.39,3.532,201,5.226,201,7.683 M194.905,7.765c0,1.554,0.785,2.734,2.012,2.734
			c1.163,0,1.973-1.126,1.973-2.771c0-1.258-0.562-2.721-1.958-2.721C195.49,5.007,194.905,6.419,194.905,7.765"/>
	</g>
</g>
</svg>
