<?xml version="1.0" encoding="utf-8"?>
<!-- Generator: Adobe Illustrator 16.0.0, SVG Export Plug-In . SVG Version: 6.00 Build 0)  -->
<!DOCTYPE svg PUBLIC "-//W3C//DTD SVG 1.1//EN" "http://www.w3.org/Graphics/SVG/1.1/DTD/svg11.dtd">
<svg version="1.1" id="Layer_1" xmlns="http://www.w3.org/2000/svg" xmlns:xlink="http://www.w3.org/1999/xlink" x="0px" y="0px"
	 width="45.167px" height="71px" viewBox="0 0 45.167 71" enable-background="new 0 0 45.167 71" xml:space="preserve">
<g>
	<path fill="#E31837" d="M16.867,6.403c-0.531-4.034-4.234-6.871-8.266-6.339C4.567,0.596,1.727,4.296,2.259,8.33
		c0.532,4.033,4.234,6.871,8.27,6.34C14.562,14.137,17.397,10.436,16.867,6.403"/>
	<path fill="#0069AA" d="M34.831,24.793c-0.332-3.029-2.845-5.369-5.816-5.046c-2.969,0.325-5.159,3.18-4.827,6.211
		c0.332,3.029,3.052,5.042,6.026,4.718C33.181,30.349,35.16,27.82,34.831,24.793"/>
	<path fill="#0069AA" d="M15.235,24.021c0.744,3.439,3.561,6.828,5.491,9.805c1.063,1.639,1.486,2.947,1.589,4.072
		c0.12,1.312-0.169,3.591-2.497,5.189c-2.364,1.626-8.457,0.544-11.532-0.243c-0.772-0.198-1.333-0.342-1.661-0.385
		c-2.12-0.433-2.717,0.297-2.995,0.753c-0.443,0.723-0.351,1.842,0.887,2.707c4.063,3.063,10.854,4.746,15.591,4.595
		c0.76-0.005,1.045-0.041,1.773-0.109c0.723-0.119,1.553,0.397,1.719,1.303c0.946,5.148,2.043,10.998,4.939,16.438
		c1.438,2.705,2.986,2.841,3.928,2.28c1.695-1.015,0.52-3.548,0.002-5.882c-0.471-2.143-1.61-7.694-1.558-11.361
		c0.118-8.699,2.332-12.858,4.711-16.116c1.839-2.52,4.483-4.937,6.825-7.656c1.063-1.237,1.929-2.497,2.372-3.7
		c0.609-1.672,0.268-2.604-0.466-3.02c-1.212-0.674-2.41,0.121-3.642,1.581c-2.317,2.748-3.04,3.742-4.995,5.333
		c-3.161,2.572-9.342,3.941-13.584-2.051c-1.211-1.707-1.981-3.443-2.695-4.838C18.828,21.533,18,19.9,16.599,20.094
		C14.9,20.327,14.816,22.073,15.235,24.021"/>
	<path fill="#F8971D" d="M7.276,14.365c-1.52-0.49-2.835-1.476-3.747-2.779c-2.417,1.33-3.878,4.055-3.457,6.945
		c0.549,3.718,4.007,6.288,7.721,5.738c3.717-0.542,6.288-4.001,5.74-7.718c-0.104-0.717-0.326-1.392-0.628-2.012
		c-1.061,0.468-2.238,0.675-3.459,0.593c-0.707-0.046-1.465-0.186-2.296-0.575c-0.097-0.045-0.147-0.113-0.131-0.157
		C7.037,14.346,7.151,14.326,7.276,14.365"/>
	<path fill="#FFD200" d="M27.129,10.387c-0.558-3.79-4.083-6.414-7.877-5.855c-0.698,0.101-1.355,0.306-1.958,0.591
		c0.232,0.872,0.334,1.798,0.258,2.756c-0.208,2.653-1.658,4.9-3.697,6.164c1.181,2.877,4.2,4.697,7.418,4.222
		C25.067,17.708,27.688,14.181,27.129,10.387"/>
	<path fill="#0069AA" d="M34.252,62.76c0.107-0.236,0.25-0.443,0.429-0.616c0.182-0.175,0.389-0.312,0.63-0.412
		c0.238-0.1,0.491-0.149,0.761-0.149c0.268,0,0.52,0.049,0.759,0.149c0.237,0.1,0.445,0.237,0.624,0.412
		c0.177,0.173,0.32,0.38,0.422,0.616c0.107,0.238,0.158,0.495,0.158,0.77c0,0.283-0.051,0.544-0.158,0.783
		c-0.102,0.24-0.245,0.447-0.422,0.624c-0.179,0.176-0.387,0.312-0.624,0.412c-0.239,0.097-0.491,0.144-0.759,0.144
		c-0.27,0-0.523-0.047-0.761-0.144c-0.241-0.1-0.448-0.236-0.63-0.412c-0.179-0.177-0.322-0.384-0.429-0.624
		c-0.102-0.239-0.155-0.5-0.155-0.783C34.097,63.255,34.15,62.999,34.252,62.76 M34.578,64.198c0.08,0.205,0.196,0.382,0.337,0.532
		c0.147,0.148,0.318,0.267,0.514,0.352c0.197,0.088,0.413,0.13,0.643,0.13c0.225,0,0.438-0.042,0.634-0.13
		c0.195-0.085,0.365-0.204,0.511-0.352c0.144-0.15,0.256-0.327,0.338-0.532c0.083-0.203,0.124-0.425,0.124-0.668
		c0-0.233-0.041-0.451-0.124-0.653c-0.082-0.202-0.194-0.377-0.338-0.527c-0.146-0.148-0.316-0.263-0.511-0.35
		c-0.196-0.083-0.409-0.128-0.634-0.128c-0.23,0-0.446,0.045-0.643,0.128c-0.196,0.087-0.367,0.202-0.514,0.35
		c-0.141,0.15-0.257,0.325-0.337,0.527c-0.084,0.202-0.126,0.42-0.126,0.653C34.452,63.773,34.494,63.996,34.578,64.198
		 M36.191,62.394c0.274,0,0.475,0.055,0.604,0.164c0.133,0.108,0.2,0.272,0.2,0.493c0,0.205-0.06,0.355-0.174,0.451
		c-0.115,0.097-0.258,0.152-0.432,0.17l0.657,1.012h-0.385l-0.621-0.985h-0.376v0.985h-0.358v-2.29H36.191z M36.034,63.407
		c0.08,0,0.155-0.002,0.227-0.007c0.073-0.005,0.136-0.019,0.193-0.046c0.056-0.022,0.1-0.058,0.132-0.11
		c0.033-0.05,0.05-0.12,0.05-0.212c0-0.073-0.015-0.137-0.044-0.181s-0.069-0.079-0.116-0.104c-0.045-0.025-0.101-0.041-0.162-0.051
		c-0.06-0.009-0.12-0.011-0.179-0.011h-0.471v0.722H36.034z"/>
</g>
</svg>
