<?xml version="1.0" encoding="UTF-8"?>
<svg xmlns="http://www.w3.org/2000/svg" xmlns:xlink="http://www.w3.org/1999/xlink" width="100px" height="100px" viewBox="0 0 100 100" version="1.1">
<g id="surface1">
<path style=" stroke:none;fill-rule:nonzero;fill:rgb(96.862745%,57.254902%,17.647059%);fill-opacity:1;" d="M 24.832031 68.703125 C 24.898438 68.148438 25.015625 67.609375 25.160156 67.101562 C 25.296875 66.59375 25.476562 66.113281 25.660156 65.667969 C 25.847656 65.226562 26.046875 64.820312 26.253906 64.457031 C 26.660156 63.726562 27.078125 63.171875 27.390625 62.800781 C 27.699219 62.429688 27.90625 62.25 27.90625 62.25 C 27.90625 62.25 27.882812 62.3125 27.832031 62.429688 C 27.785156 62.550781 27.71875 62.722656 27.628906 62.945312 C 27.542969 63.164062 27.449219 63.4375 27.339844 63.742188 C 27.234375 64.050781 27.113281 64.398438 27 64.777344 C 26.769531 65.535156 26.539062 66.425781 26.375 67.378906 C 26.332031 67.617188 26.304688 67.859375 26.265625 68.105469 C 26.242188 68.351562 26.203125 68.597656 26.191406 68.851562 C 26.179688 68.976562 26.171875 69.101562 26.160156 69.226562 L 26.148438 69.605469 C 26.132812 69.859375 26.144531 70.113281 26.148438 70.367188 C 26.152344 70.621094 26.167969 70.875 26.183594 71.125 C 26.21875 71.375 26.226562 71.628906 26.269531 71.871094 C 26.347656 72.363281 26.433594 72.847656 26.558594 73.308594 C 26.589844 73.425781 26.621094 73.539062 26.648438 73.652344 C 26.683594 73.769531 26.722656 73.878906 26.753906 73.988281 C 26.824219 74.210938 26.890625 74.425781 26.976562 74.632812 C 27.121094 75.050781 27.300781 75.433594 27.457031 75.796875 C 27.542969 75.972656 27.628906 76.144531 27.707031 76.304688 C 27.785156 76.46875 27.863281 76.621094 27.945312 76.761719 C 28.109375 77.042969 28.226562 77.308594 28.355469 77.503906 C 28.480469 77.703125 28.570312 77.871094 28.636719 77.980469 C 28.699219 78.097656 28.734375 78.15625 28.734375 78.15625 C 28.734375 78.15625 28.679688 78.113281 28.578125 78.035156 C 28.476562 77.957031 28.324219 77.84375 28.140625 77.683594 C 27.949219 77.535156 27.746094 77.324219 27.503906 77.085938 C 27.257812 76.847656 27.027344 76.546875 26.757812 76.222656 C 26.636719 76.050781 26.511719 75.871094 26.378906 75.683594 C 26.242188 75.5 26.140625 75.289062 26.011719 75.082031 C 25.882812 74.875 25.78125 74.644531 25.671875 74.414062 C 25.554688 74.183594 25.460938 73.9375 25.367188 73.6875 C 25.265625 73.441406 25.191406 73.179688 25.113281 72.914062 C 25.027344 72.652344 24.980469 72.375 24.921875 72.097656 C 24.859375 71.824219 24.832031 71.539062 24.792969 71.257812 C 24.769531 70.972656 24.746094 70.6875 24.738281 70.402344 C 24.734375 69.832031 24.75 69.257812 24.832031 68.703125 Z M 60.953125 39.289062 C 61.21875 39.421875 61.542969 39.582031 61.902344 39.789062 C 62.261719 39.992188 62.667969 40.230469 63.09375 40.507812 C 63.949219 41.066406 64.914062 41.773438 65.875 42.621094 C 66.117188 42.828125 66.355469 43.050781 66.59375 43.28125 C 66.835938 43.503906 67.070312 43.742188 67.308594 43.984375 C 67.539062 44.226562 67.773438 44.472656 68 44.730469 C 68.222656 44.992188 68.453125 45.246094 68.664062 45.515625 C 68.878906 45.785156 69.09375 46.050781 69.292969 46.332031 L 69.597656 46.746094 C 69.691406 46.886719 69.785156 47.027344 69.878906 47.171875 C 70.074219 47.449219 70.246094 47.738281 70.414062 48.023438 C 70.589844 48.304688 70.742188 48.597656 70.894531 48.882812 C 71.195312 49.457031 71.453125 50.027344 71.667969 50.578125 C 71.785156 50.851562 71.871094 51.128906 71.960938 51.390625 C 72.054688 51.652344 72.128906 51.910156 72.191406 52.160156 C 72.339844 52.65625 72.414062 53.125 72.496094 53.53125 C 72.5625 53.945312 72.597656 54.304688 72.628906 54.601562 C 72.648438 54.898438 72.648438 55.132812 72.65625 55.292969 C 72.660156 55.453125 72.660156 55.535156 72.660156 55.535156 C 72.660156 55.535156 72.628906 55.457031 72.574219 55.308594 C 72.523438 55.15625 72.441406 54.9375 72.351562 54.660156 C 72.246094 54.386719 72.121094 54.058594 71.976562 53.679688 C 71.808594 53.304688 71.644531 52.886719 71.425781 52.441406 C 71.320312 52.21875 71.214844 51.984375 71.085938 51.75 C 70.960938 51.515625 70.851562 51.269531 70.707031 51.027344 C 70.4375 50.53125 70.136719 50.023438 69.808594 49.507812 C 69.484375 48.992188 69.128906 48.46875 68.753906 47.949219 C 68.660156 47.816406 68.566406 47.6875 68.472656 47.554688 L 68.175781 47.171875 C 67.984375 46.910156 67.773438 46.65625 67.570312 46.402344 C 67.164062 45.890625 66.734375 45.398438 66.304688 44.914062 C 65.871094 44.4375 65.445312 43.964844 65.015625 43.523438 C 64.585938 43.078125 64.164062 42.65625 63.757812 42.257812 C 63.347656 41.863281 62.960938 41.488281 62.59375 41.152344 C 61.867188 40.464844 61.238281 39.914062 60.800781 39.523438 C 60.351562 39.132812 60.097656 38.910156 60.097656 38.910156 C 60.097656 38.910156 60.417969 39.027344 60.953125 39.289062 Z M 32.140625 83.808594 C 35.070312 86.132812 38.183594 87.976562 41.546875 89.089844 C 39.539062 87.914062 37.765625 86.332031 36.164062 84.472656 C 34.195312 82.1875 32.054688 79.515625 31.582031 76.203125 C 31.171875 73.335938 32.679688 70.242188 34.867188 68.589844 C 36.066406 67.679688 37.625 66.917969 39.582031 66.355469 C 42.691406 65.457031 46.371094 63.625 47.933594 60.195312 C 50.683594 54.15625 45.992188 48.933594 45.90625 43.121094 C 45.851562 39.542969 47.898438 36.511719 50.765625 35.089844 C 47.703125 36.679688 49.285156 40.773438 50.464844 42.929688 C 52.21875 46.140625 54.445312 48.914062 56.960938 51.363281 C 58.648438 53.007812 60.65625 54.28125 62.390625 55.875 C 64.164062 57.503906 65.851562 59.285156 67.261719 61.324219 C 69.1875 64.113281 70.578125 67.578125 70.3125 71.273438 C 69.929688 76.578125 66.851562 81.707031 63.109375 85.304688 C 64.398438 84.371094 65.632812 83.3125 66.765625 82.183594 C 72.949219 76.03125 78.035156 65.625 76.917969 55.984375 C 76.304688 50.683594 73.410156 46.15625 69.933594 42.726562 C 67.390625 40.214844 64.527344 38.148438 61.582031 36.316406 C 58.699219 34.527344 55.519531 33.261719 52.691406 31.390625 C 48.476562 28.601562 44.578125 25.273438 41.238281 21.203125 C 38.984375 18.453125 35.632812 13.0625 39.601562 9.996094 C 35.902344 12.773438 33.804688 17.628906 34.84375 22.695312 C 36.523438 30.890625 44.558594 37.023438 42.285156 46.308594 C 40.996094 51.578125 36.277344 55.160156 32.125 57.257812 C 29.503906 58.582031 27.503906 60.078125 26.046875 61.683594 C 23.398438 64.609375 22.09375 69.390625 23.445312 73.34375 C 25 77.894531 28.746094 81.109375 32.140625 83.808594 "/>
<path style=" stroke:none;fill-rule:nonzero;fill:rgb(95.294118%,39.607843%,18.431373%);fill-opacity:1;" d="M 44.417969 71.949219 C 43.019531 72.175781 41.882812 72.574219 40.980469 73.101562 C 39.339844 74.058594 38.046875 76.070312 38.09375 78.082031 C 38.148438 80.402344 39.402344 82.417969 40.570312 84.152344 C 41.652344 85.757812 42.914062 87.132812 44.429688 88.15625 C 44.859375 88.445312 45.308594 88.707031 45.777344 88.9375 C 45.308594 88.707031 44.859375 88.445312 44.429688 88.15625 C 43.824219 87.742188 43.203125 86.164062 42.949219 85.480469 C 42.636719 84.628906 42.625 83.878906 43.03125 83.058594 C 44.949219 79.191406 50 80.035156 53.054688 77.71875 C 54.40625 76.691406 55.234375 75.125 55.632812 73.503906 C 55.941406 72.25 56.921875 69.816406 58.425781 71.152344 C 59.976562 72.535156 60.566406 74.640625 60.609375 76.871094 C 60.644531 78.914062 60.246094 81.03125 59.550781 82.992188 C 59.191406 84.011719 58.75 85.007812 58.269531 85.976562 C 57.925781 86.664062 57.449219 88.054688 56.722656 88.429688 C 60.457031 86.496094 64.304688 82.453125 65.191406 77.859375 C 65.675781 75.335938 65.003906 72.832031 63.902344 70.753906 C 63.097656 69.230469 62.082031 67.863281 60.992188 66.59375 C 59.929688 65.355469 58.648438 64.3125 57.621094 63.042969 C 56.089844 61.148438 54.78125 59.050781 53.835938 56.695312 C 53.207031 55.125 51.835938 52.035156 53.179688 50.417969 C 51.742188 51.988281 50.9375 53.996094 50.679688 56.457031 C 50.261719 60.46875 53.066406 64.453125 50.675781 68.390625 C 49.316406 70.625 46.628906 71.585938 44.417969 71.949219 "/>
<path style=" stroke:none;fill-rule:nonzero;fill:rgb(94.117647%,23.921569%,19.607843%);fill-opacity:1;" d="M 58.269531 85.976562 C 58.75 85.007812 59.191406 84.011719 59.550781 82.992188 C 60.246094 81.03125 60.644531 78.914062 60.609375 76.871094 C 60.566406 74.640625 59.976562 72.535156 58.425781 71.152344 C 56.921875 69.816406 55.941406 72.25 55.632812 73.503906 C 55.234375 75.125 54.40625 76.691406 53.054688 77.71875 C 50 80.035156 44.949219 79.191406 43.03125 83.058594 C 42.625 83.878906 42.636719 84.628906 42.949219 85.480469 C 43.203125 86.164062 43.824219 87.742188 44.429688 88.15625 C 44.859375 88.445312 45.308594 88.707031 45.777344 88.9375 C 46.988281 89.53125 48.507812 89.84375 49.847656 89.949219 C 51.03125 90.042969 52.324219 89.921875 53.507812 89.640625 C 54.59375 89.382812 55.703125 88.957031 56.722656 88.429688 C 57.449219 88.054688 57.925781 86.664062 58.269531 85.976562 "/>
<path style=" stroke:none;fill-rule:nonzero;fill:rgb(97.254902%,64.705882%,17.254902%);fill-opacity:1;" d="M 24.921875 72.097656 C 24.980469 72.375 25.027344 72.652344 25.113281 72.914062 C 25.191406 73.179688 25.265625 73.441406 25.367188 73.6875 C 25.460938 73.9375 25.554688 74.183594 25.671875 74.414062 C 25.78125 74.644531 25.882812 74.875 26.011719 75.082031 C 26.140625 75.289062 26.242188 75.5 26.378906 75.683594 C 26.511719 75.871094 26.636719 76.050781 26.757812 76.222656 C 27.027344 76.546875 27.257812 76.847656 27.503906 77.085938 C 27.746094 77.324219 27.949219 77.535156 28.140625 77.683594 C 28.324219 77.84375 28.476562 77.957031 28.578125 78.035156 C 28.679688 78.113281 28.734375 78.15625 28.734375 78.15625 C 28.734375 78.15625 28.699219 78.097656 28.636719 77.980469 C 28.570312 77.871094 28.480469 77.703125 28.355469 77.503906 C 28.226562 77.308594 28.109375 77.042969 27.945312 76.761719 C 27.863281 76.621094 27.785156 76.46875 27.707031 76.304688 C 27.628906 76.144531 27.542969 75.972656 27.457031 75.796875 C 27.300781 75.433594 27.121094 75.050781 26.976562 74.632812 C 26.890625 74.425781 26.824219 74.210938 26.753906 73.988281 C 26.722656 73.878906 26.683594 73.769531 26.648438 73.652344 C 26.621094 73.539062 26.589844 73.425781 26.558594 73.308594 C 26.433594 72.847656 26.347656 72.363281 26.269531 71.871094 C 26.226562 71.628906 26.21875 71.375 26.183594 71.125 C 26.167969 70.875 26.152344 70.621094 26.148438 70.367188 C 26.144531 70.113281 26.132812 69.859375 26.148438 69.605469 L 26.160156 69.226562 C 26.171875 69.101562 26.179688 68.976562 26.191406 68.851562 C 26.203125 68.597656 26.242188 68.351562 26.265625 68.105469 C 26.304688 67.859375 26.332031 67.617188 26.375 67.378906 C 26.539062 66.425781 26.769531 65.535156 27 64.777344 C 27.113281 64.398438 27.234375 64.050781 27.339844 63.742188 C 27.449219 63.4375 27.542969 63.164062 27.628906 62.945312 C 27.71875 62.722656 27.785156 62.550781 27.832031 62.429688 C 27.882812 62.3125 27.90625 62.25 27.90625 62.25 C 27.90625 62.25 27.699219 62.429688 27.390625 62.800781 C 27.078125 63.171875 26.660156 63.726562 26.253906 64.457031 C 26.046875 64.820312 25.847656 65.226562 25.660156 65.667969 C 25.476562 66.113281 25.296875 66.59375 25.160156 67.101562 C 25.015625 67.609375 24.898438 68.148438 24.832031 68.703125 C 24.75 69.257812 24.734375 69.832031 24.738281 70.402344 C 24.746094 70.6875 24.769531 70.972656 24.792969 71.257812 C 24.832031 71.539062 24.859375 71.824219 24.921875 72.097656 "/>
<path style=" stroke:none;fill-rule:nonzero;fill:rgb(97.254902%,64.705882%,17.254902%);fill-opacity:1;" d="M 62.59375 41.152344 C 62.960938 41.488281 63.347656 41.863281 63.757812 42.257812 C 64.164062 42.65625 64.585938 43.078125 65.015625 43.523438 C 65.445312 43.964844 65.871094 44.4375 66.304688 44.914062 C 66.734375 45.398438 67.164062 45.890625 67.570312 46.402344 C 67.773438 46.65625 67.984375 46.910156 68.175781 47.171875 L 68.472656 47.554688 C 68.566406 47.6875 68.660156 47.816406 68.753906 47.949219 C 69.128906 48.46875 69.484375 48.992188 69.808594 49.507812 C 70.136719 50.023438 70.4375 50.53125 70.707031 51.027344 C 70.851562 51.269531 70.960938 51.515625 71.085938 51.75 C 71.214844 51.984375 71.320312 52.21875 71.425781 52.441406 C 71.644531 52.886719 71.808594 53.304688 71.976562 53.679688 C 72.121094 54.058594 72.246094 54.386719 72.351562 54.660156 C 72.441406 54.9375 72.523438 55.15625 72.574219 55.308594 C 72.628906 55.457031 72.660156 55.535156 72.660156 55.535156 C 72.660156 55.535156 72.660156 55.453125 72.65625 55.292969 C 72.648438 55.132812 72.648438 54.898438 72.628906 54.601562 C 72.597656 54.304688 72.5625 53.945312 72.496094 53.53125 C 72.414062 53.125 72.339844 52.65625 72.191406 52.160156 C 72.128906 51.910156 72.054688 51.652344 71.960938 51.390625 C 71.871094 51.128906 71.785156 50.851562 71.667969 50.578125 C 71.453125 50.027344 71.195312 49.457031 70.894531 48.882812 C 70.742188 48.597656 70.589844 48.304688 70.414062 48.023438 C 70.246094 47.738281 70.074219 47.449219 69.878906 47.171875 C 69.785156 47.027344 69.691406 46.886719 69.597656 46.746094 L 69.292969 46.332031 C 69.09375 46.050781 68.878906 45.785156 68.664062 45.515625 C 68.453125 45.246094 68.222656 44.992188 68 44.730469 C 67.773438 44.472656 67.539062 44.226562 67.308594 43.984375 C 67.070312 43.742188 66.835938 43.503906 66.59375 43.28125 C 66.355469 43.050781 66.117188 42.828125 65.875 42.621094 C 64.914062 41.773438 63.949219 41.066406 63.09375 40.507812 C 62.667969 40.230469 62.261719 39.992188 61.902344 39.789062 C 61.542969 39.582031 61.21875 39.421875 60.953125 39.289062 C 60.417969 39.027344 60.097656 38.910156 60.097656 38.910156 C 60.097656 38.910156 60.351562 39.132812 60.800781 39.523438 C 61.238281 39.914062 61.867188 40.464844 62.59375 41.152344 "/>
</g>
</svg>
